<svg xmlns="http://www.w3.org/2000/svg" viewBox="0 0 512 512">
  <rect width="512" height="512" rx="112" fill="#F3EFEB"/>
  <g fill="#5B8A5B">
    <!-- 네잎클로버: 하트형 잎 4장 -->
    <g transform="translate(256,256)">
      <g transform="rotate(0)"><path d="M0,-24 C-14,-64 -64,-64 -64,-108 C-64,-140 -38,-152 -16,-140 C-6,-134 0,-124 0,-124 C0,-124 6,-134 16,-140 C38,-152 64,-140 64,-108 C64,-64 14,-64 0,-24 Z"/></g>
      <g transform="rotate(90)"><path d="M0,-24 C-14,-64 -64,-64 -64,-108 C-64,-140 -38,-152 -16,-140 C-6,-134 0,-124 0,-124 C0,-124 6,-134 16,-140 C38,-152 64,-140 64,-108 C64,-64 14,-64 0,-24 Z"/></g>
      <g transform="rotate(180)"><path d="M0,-24 C-14,-64 -64,-64 -64,-108 C-64,-140 -38,-152 -16,-140 C-6,-134 0,-124 0,-124 C0,-124 6,-134 16,-140 C38,-152 64,-140 64,-108 C64,-64 14,-64 0,-24 Z"/></g>
      <g transform="rotate(270)"><path d="M0,-24 C-14,-64 -64,-64 -64,-108 C-64,-140 -38,-152 -16,-140 C-6,-134 0,-124 0,-124 C0,-124 6,-134 16,-140 C38,-152 64,-140 64,-108 C64,-64 14,-64 0,-24 Z"/></g>
    </g>
    <path d="M256,268 C258,320 268,352 292,384 L272,396 C250,362 242,322 244,268 Z"/>
  </g>
</svg>
